<svg id="calendar" xmlns="http://www.w3.org/2000/svg" width="31.58" height="31.58" viewBox="0 0 31.58 31.58">
  <path id="Path_31" data-name="Path 31" d="M27.509,2.467H24.672V.987a.987.987,0,1,0-1.974,0v1.48H8.882V.987a.987.987,0,0,0-1.974,0v1.48H4.071A4.075,4.075,0,0,0,0,6.538V27.509A4.075,4.075,0,0,0,4.071,31.58H27.509a4.075,4.075,0,0,0,4.071-4.071V6.538A4.075,4.075,0,0,0,27.509,2.467Zm2.1,25.042a2.1,2.1,0,0,1-2.1,2.1H4.071a2.1,2.1,0,0,1-2.1-2.1V11.164a.308.308,0,0,1,.308-.308H29.3a.308.308,0,0,1,.308.308Z" fill="#959595"/>
</svg>
