<svg xmlns="http://www.w3.org/2000/svg" width="20.819" height="20.819" viewBox="0 0 20.819 20.819">
  <g id="Group_198" data-name="Group 198" transform="translate(-67 -868.795)">
    <g id="Group_62" data-name="Group 62" transform="translate(67 868.795)">
      <g id="Group_61" data-name="Group 61">
        <path id="Path_22" data-name="Path 22" d="M8.794,0a8.794,8.794,0,1,0,8.794,8.794A8.8,8.8,0,0,0,8.794,0Zm0,16.05A7.256,7.256,0,1,1,16.05,8.794,7.264,7.264,0,0,1,8.794,16.05Z" fill="#ff8308"/>
      </g>
    </g>
    <g id="Group_64" data-name="Group 64" transform="translate(80.691 882.487)">
      <g id="Group_63" data-name="Group 63">
        <path id="Path_23" data-name="Path 23" d="M343.611,342.524l-5.589-5.589a.769.769,0,0,0-1.088,1.088l5.589,5.589a.769.769,0,0,0,1.088-1.088Z" transform="translate(-336.708 -336.71)" fill="#ff8308"/>
      </g>
    </g>
  </g>
</svg>
