<svg id="list" xmlns="http://www.w3.org/2000/svg" width="18" height="18" viewBox="0 0 18 18">
  <g id="Group_104" data-name="Group 104">
    <g id="Group_103" data-name="Group 103">
      <path id="Path_40" data-name="Path 40" d="M14.063,0H3.938A3.937,3.937,0,0,0,0,3.938V14.063A3.937,3.937,0,0,0,3.938,18H14.063A3.937,3.937,0,0,0,18,14.063V3.938A3.937,3.937,0,0,0,14.063,0Zm2.813,14.063a2.812,2.812,0,0,1-2.812,2.813H3.938a2.812,2.812,0,0,1-2.812-2.812V3.938A2.812,2.812,0,0,1,3.938,1.125H14.063a2.812,2.812,0,0,1,2.813,2.813Z"/>
      <path id="Path_41" data-name="Path 41" d="M113.688,112h-1.125a.562.562,0,0,0-.562.563v1.125a.562.562,0,0,0,.563.563h1.125a.562.562,0,0,0,.563-.562v-1.125A.562.562,0,0,0,113.688,112Z" transform="translate(-108.063 -108.063)"/>
      <path id="Path_42" data-name="Path 42" d="M113.688,224h-1.125a.562.562,0,0,0-.562.563v1.125a.562.562,0,0,0,.563.563h1.125a.562.562,0,0,0,.563-.562v-1.125A.562.562,0,0,0,113.688,224Z" transform="translate(-108.063 -216.125)"/>
      <path id="Path_43" data-name="Path 43" d="M113.688,336h-1.125a.562.562,0,0,0-.562.563v1.125a.562.562,0,0,0,.563.563h1.125a.562.562,0,0,0,.563-.562v-1.125A.562.562,0,0,0,113.688,336Z" transform="translate(-108.063 -324.188)"/>
      <rect id="Rectangle_141" data-name="Rectangle 141" width="6.75" height="1.125" transform="translate(7.313 4.5)"/>
      <rect id="Rectangle_142" data-name="Rectangle 142" width="6.75" height="1.125" transform="translate(7.313 8.438)"/>
      <rect id="Rectangle_143" data-name="Rectangle 143" width="6.75" height="1.125" transform="translate(7.313 12.375)"/>
    </g>
  </g>
</svg>
