<svg id="search" xmlns="http://www.w3.org/2000/svg" width="20" height="20" viewBox="0 0 20 20">
  <g id="Group_60" data-name="Group 60" transform="translate(3.007 4.335)">
    <g id="Group_59" data-name="Group 59">
      <path id="Path_21" data-name="Path 21" d="M79.493,111.192a.739.739,0,0,0-1.045,0A5.05,5.05,0,0,0,77,115.285a.739.739,0,0,0,.734.666c.025,0,.049,0,.074,0a.739.739,0,0,0,.662-.809,3.578,3.578,0,0,1,1.019-2.9A.739.739,0,0,0,79.493,111.192Z" transform="translate(-76.978 -110.975)" fill="#b8b8b8"/>
    </g>
  </g>
  <g id="Group_62" data-name="Group 62">
    <g id="Group_61" data-name="Group 61">
      <path id="Path_22" data-name="Path 22" d="M8.448,0A8.448,8.448,0,1,0,16.9,8.448,8.458,8.458,0,0,0,8.448,0Zm0,15.419a6.97,6.97,0,1,1,6.97-6.97A6.978,6.978,0,0,1,8.448,15.419Z" fill="#b8b8b8"/>
    </g>
  </g>
  <g id="Group_64" data-name="Group 64" transform="translate(13.153 13.153)">
    <g id="Group_63" data-name="Group 63">
      <path id="Path_23" data-name="Path 23" d="M343.339,342.3l-5.37-5.369a.739.739,0,0,0-1.045,1.045l5.369,5.369a.739.739,0,1,0,1.045-1.045Z" transform="translate(-336.708 -336.71)" fill="#b8b8b8"/>
    </g>
  </g>
</svg>
