<svg xmlns="http://www.w3.org/2000/svg" width="36.438" height="28.434" viewBox="0 0 36.438 28.434">
  <g id="speedometer" transform="translate(0 0)">
    <path id="Path_32" data-name="Path 32" d="M200.728,425.767h-6.861a1.068,1.068,0,1,0,0,2.135h6.861a1.068,1.068,0,1,0,0-2.135Z" transform="translate(-179.079 -399.468)" fill="#959595"/>
    <path id="Path_33" data-name="Path 33" d="M150.1,204.822a3.353,3.353,0,0,0-4.5-4.5l-5.028-5.029a1.068,1.068,0,1,0-1.51,1.51l5.029,5.029a3.353,3.353,0,0,0,4.5,4.5l1.183,1.183a1.067,1.067,0,1,0,1.51-1.51Zm-3-.275a1.218,1.218,0,1,1,1.218-1.218A1.22,1.22,0,0,1,147.1,204.547Z" transform="translate(-128.878 -185.111)" fill="#959595"/>
    <path id="Path_34" data-name="Path 34" d="M18.219,56.233A18.219,18.219,0,0,0,2.441,83.563a1.068,1.068,0,0,0,1.457.39L6.87,82.237A1.068,1.068,0,1,0,5.8,80.388L3.786,81.552A16.073,16.073,0,0,1,2.172,75.52H4.5a1.068,1.068,0,0,0,0-2.135H2.171a15.963,15.963,0,0,1,1.618-6.031L5.8,68.516A1.068,1.068,0,0,0,6.87,66.667L4.859,65.506a16.217,16.217,0,0,1,4.414-4.414L10.434,63.1a1.068,1.068,0,1,0,1.849-1.068l-1.162-2.013A15.968,15.968,0,0,1,17.152,58.4v2.326a1.068,1.068,0,0,0,2.135,0V58.4a15.969,15.969,0,0,1,6.031,1.618l-1.162,2.013A1.068,1.068,0,1,0,26,63.1l1.161-2.011a16.214,16.214,0,0,1,4.414,4.414l-2.011,1.161a1.067,1.067,0,1,0,1.068,1.849l2.013-1.162a15.964,15.964,0,0,1,1.618,6.031H31.94a1.068,1.068,0,0,0,0,2.135h2.326a16.073,16.073,0,0,1-1.614,6.033l-2.016-1.164a1.068,1.068,0,0,0-1.068,1.849l2.971,1.715A1.067,1.067,0,0,0,34,83.563a18.219,18.219,0,0,0-15.778-27.33Z" transform="translate(0 -56.233)" fill="#959595"/>
  </g>
</svg>
