<svg xmlns="http://www.w3.org/2000/svg" xmlns:xlink="http://www.w3.org/1999/xlink" width="161.567" height="161.567" viewBox="0 0 161.567 161.567">
  <defs>
    <filter id="Rectangle_1528" x="0" y="0" width="161.567" height="161.567" filterUnits="userSpaceOnUse">
      <feOffset dx="4" dy="4" input="SourceAlpha"/>
      <feGaussianBlur stdDeviation="10" result="blur"/>
      <feFlood flood-opacity="0.161"/>
      <feComposite operator="in" in2="blur"/>
      <feComposite in="SourceGraphic"/>
    </filter>
  </defs>
  <g id="Group_197" data-name="Group 197" transform="translate(-133 -374)">
    <g transform="matrix(1, 0, 0, 1, 133, 374)" filter="url(#Rectangle_1528)">
      <rect id="Rectangle_1528-2" data-name="Rectangle 1528" width="101.567" height="101.567" rx="14" transform="translate(26 26)" fill="#fff"/>
    </g>
    <g id="Group_195" data-name="Group 195" transform="translate(179.675 416.124)">
      <path id="Path_44" data-name="Path 44" d="M286.594,520.5l-14.6-17.786c-.041-.05-.083-.1-.124-.14a27.243,27.243,0,0,0,4.645-5.471,1.584,1.584,0,1,0-2.665-1.711,23.713,23.713,0,1,1,3.744-12.794,18.215,18.215,0,0,1-.5,4.318l-3.967-.025a5.29,5.29,0,0,0-10.521-.066l-10.707-.066a5.285,5.285,0,0,0-10.48-.066h-.008l-4.438-.029a8.507,8.507,0,0,1,5.715-9.281,1.4,1.4,0,0,0,.946-1.033,11.263,11.263,0,0,1,11.282-8.612,13.347,13.347,0,0,1,12.249,6.976H249.146a1.389,1.389,0,1,0,0,2.777H269.3a1.388,1.388,0,0,0,1.326-1.8,16.4,16.4,0,0,0-15.716-10.724,14.032,14.032,0,0,0-13.773,10.025c-3.376,1.368-8.323,5.521-6.711,13.331a1.388,1.388,0,0,0,1.351,1.107l5.612.037h.008a1.449,1.449,0,0,0,.355-.049,5.287,5.287,0,0,0,9.761.078,1.512,1.512,0,0,0,.31.041l10.794.07h.008a1.338,1.338,0,0,0,.388-.062,5.284,5.284,0,0,0,9.653.07,1.342,1.342,0,0,0,.368.058l5.48.033h.008a1.388,1.388,0,0,0,1.364-1.136,1.6,1.6,0,0,0,.182-.442,22.053,22.053,0,0,0,.694-5.529,26.855,26.855,0,1,0-13.339,23.233,2.786,2.786,0,0,0,.269.4l14.6,17.786a2.775,2.775,0,1,0,4.3-3.513Zm-39.948-30.175a2.909,2.909,0,1,1,2.909-2.909A2.914,2.914,0,0,1,246.646,490.329Zm21.208,0a2.909,2.909,0,1,1,2.909-2.909A2.914,2.914,0,0,1,267.853,490.329Z" transform="translate(-227 -455.72)" fill="#ff8308"/>
    </g>
  </g>
</svg>
