<svg id="world-wide-web" xmlns="http://www.w3.org/2000/svg" width="34.238" height="34.238" viewBox="0 0 34.238 34.238">
  <g id="Group_201" data-name="Group 201" transform="translate(0 0)">
    <path id="Path_46" data-name="Path 46" d="M29.224,5.014a17.119,17.119,0,1,0-24.21,24.21,17.119,17.119,0,1,0,24.21-24.21ZM6.434,6.434a15.074,15.074,0,0,1,5.2-3.4,14.114,14.114,0,0,0-1.433,2.2A19.721,19.721,0,0,0,8.881,8.381a30.925,30.925,0,0,1-3.5-.775A15.409,15.409,0,0,1,6.434,6.434Zm-2.273,2.9a31.018,31.018,0,0,0,4.177.99,29.146,29.146,0,0,0-.74,5.79H2.042A14.975,14.975,0,0,1,4.161,9.334ZM4.052,24.718a14.978,14.978,0,0,1-2.01-6.595H7.6a29.117,29.117,0,0,0,.726,5.63A32.549,32.549,0,0,0,4.052,24.718ZM6.434,27.8a15.375,15.375,0,0,1-1.192-1.341A32.469,32.469,0,0,1,8.867,25.7,19.756,19.756,0,0,0,10.2,28.885a13.882,13.882,0,0,0,1.572,2.374A15.07,15.07,0,0,1,6.434,27.8Zm9.681,4.168c-1.525-.427-2.968-1.82-4.142-4.029a17.462,17.462,0,0,1-1.08-2.513c1.654-.182,3.413-.29,5.222-.315Zm0-8.866a56.582,56.582,0,0,0-5.79.368,26.936,26.936,0,0,1-.713-5.352h6.5v4.983Zm0-6.992H9.607a26.976,26.976,0,0,1,.724-5.5,55.756,55.756,0,0,0,5.783.405Zm0-7.1C14.3,8.978,12.544,8.86,10.9,8.667a17.46,17.46,0,0,1,1.071-2.489c1.174-2.209,2.617-3.6,4.142-4.029Zm14.025.426A14.979,14.979,0,0,1,32.2,16.115H26.64a29.183,29.183,0,0,0-.726-5.727A32.8,32.8,0,0,0,30.14,9.441ZM27.8,6.434A15.388,15.388,0,0,1,28.935,7.7a32.778,32.778,0,0,1-3.558.743,19.768,19.768,0,0,0-1.339-3.206,14.114,14.114,0,0,0-1.433-2.2A15.074,15.074,0,0,1,27.8,6.434ZM18.123,18.123h6.5a26.9,26.9,0,0,1-.723,5.391,55.81,55.81,0,0,0-5.781-.4Zm0-2.008V11.03a56.643,56.643,0,0,0,5.795-.365,27,27,0,0,1,.713,5.45Zm0-13.966h0c1.525.427,2.968,1.82,4.142,4.029a17.485,17.485,0,0,1,1.086,2.531c-1.656.181-3.418.288-5.228.313Zm0,29.823V25.12c1.814.036,3.568.153,5.209.345a17.449,17.449,0,0,1-1.068,2.478C21.091,30.152,19.648,31.545,18.123,31.972ZM27.8,27.8a15.067,15.067,0,0,1-5.338,3.456,13.882,13.882,0,0,0,1.572-2.374,19.713,19.713,0,0,0,1.316-3.137,30.894,30.894,0,0,1,3.579.793A15.4,15.4,0,0,1,27.8,27.8Zm2.329-2.994a31.018,31.018,0,0,0-4.235-1,29.094,29.094,0,0,0,.738-5.683H32.2A14.979,14.979,0,0,1,30.132,24.81Z" transform="translate(0 0)" fill="#fff"/>
  </g>
</svg>
